<?xml version="1.0" standalone="no"?>
<!DOCTYPE svg PUBLIC "-//W3C//DTD SVG 20010904//EN"
 "http://www.w3.org/TR/2001/REC-SVG-20010904/DTD/svg10.dtd">
<svg version="1.0" xmlns="http://www.w3.org/2000/svg"
 width="400.000000pt" height="400.000000pt" viewBox="0 0 400.000000 400.000000"
 preserveAspectRatio="xMidYMid meet">
<metadata>
Created by potrace 1.14, written by Peter Selinger 2001-2017
</metadata>
<g transform="translate(0.000000,400.000000) scale(0.100000,-0.100000)"
fill="#000000" stroke="none">
<path d="M1919 3955 c-14 -8 -31 -27 -37 -42 -6 -15 -169 -734 -363 -1598
-323 -1436 -353 -1578 -352 -1660 0 -145 43 -271 132 -383 l41 -52 -467 0
c-451 0 -468 1 -509 21 -44 21 -84 81 -84 127 0 59 52 126 111 142 31 9 70 2
254 -41 189 -44 222 -49 247 -38 29 12 58 54 58 84 0 30 -29 72 -57 83 -60 25
-416 102 -468 102 -114 0 -238 -78 -292 -184 -38 -73 -43 -189 -14 -267 30
-79 88 -141 169 -181 l67 -33 750 -3 c553 -2 757 1 778 9 28 12 57 54 57 83 0
29 -24 68 -51 82 -16 8 -56 14 -91 14 -125 1 -230 43 -315 128 -90 89 -143
229 -130 340 4 34 625 2820 664 2979 5 22 7 21 55 -22 69 -62 149 -109 243
-141 72 -26 93 -28 215 -28 119 0 144 3 215 27 92 30 180 80 243 138 24 23 47
37 51 33 5 -5 157 -673 340 -1484 353 -1570 349 -1547 315 -1661 -52 -175
-223 -309 -395 -309 -59 0 -113 -21 -128 -48 -20 -37 -13 -87 15 -116 24 -23
34 -26 98 -26 165 0 308 62 431 185 133 132 193 285 182 465 -4 62 -101 508
-356 1640 -193 855 -356 1570 -362 1588 -13 40 -59 66 -103 58 -22 -4 -57 -32
-121 -97 -154 -156 -260 -209 -419 -209 -167 0 -259 43 -417 197 -115 112
-148 128 -200 98z"/>
<path d="M2175 3018 c-31 -18 -44 -40 -45 -76 0 -46 16 -71 56 -88 29 -12 39
-12 68 0 19 8 39 23 45 34 43 81 -47 174 -124 130z"/>
<path d="M2779 3001 c-46 -47 -34 -117 25 -145 80 -38 162 46 122 123 -31 60
-99 70 -147 22z"/>
<path d="M1779 1751 c-16 -16 -29 -38 -29 -48 0 -35 290 -1457 306 -1500 20
-54 83 -119 142 -146 36 -17 66 -22 133 -22 77 0 92 3 149 32 l62 33 30 -21
c35 -26 109 -49 153 -49 92 0 204 69 246 152 20 40 309 1452 309 1511 0 18
-11 39 -29 58 -38 38 -80 39 -120 2 -29 -27 -33 -42 -175 -758 -136 -683 -147
-731 -171 -752 -38 -33 -98 -31 -130 3 l-25 27 0 559 c0 613 1 603 -59 628
-35 14 -69 8 -102 -19 l-24 -19 -5 -577 -5 -577 -28 -24 c-21 -18 -40 -24 -76
-24 -60 0 -96 26 -110 78 -6 20 -71 341 -146 712 -75 371 -140 690 -146 707
-22 68 -99 85 -150 34z"/>
</g>
</svg>
