<?xml version="1.0" encoding="UTF-8"?>
<svg xmlns="http://www.w3.org/2000/svg" xmlns:xlink="http://www.w3.org/1999/xlink" viewBox="0 0 50 50" width="50px" height="50px">
<g id="surface277346434">
<path style="fill-rule:nonzero;fill:rgb(100%,100%,100%);fill-opacity:1;stroke-width:8;stroke-linecap:butt;stroke-linejoin:round;stroke:rgb(0%,0%,0%);stroke-opacity:1;stroke-miterlimit:10;" d="M 127.285838 165.124431 C 126.6775 165.124431 126.082681 164.962208 125.541937 164.65128 L 85.999999 141.57501 L 46.45806 164.65128 C 45.39009 165.273136 44.078784 165.286655 43.010814 164.664798 C 41.942844 164.042942 41.280432 162.920898 41.280432 161.677185 L 41.280432 10.322812 C 41.280432 8.430206 42.821554 6.875566 44.714159 6.875566 L 127.285838 6.875566 C 129.191962 6.875566 130.719565 8.430206 130.719565 10.322812 L 130.719565 161.677185 C 130.719565 162.920898 130.057153 164.042942 128.989183 164.664798 C 128.461957 164.975726 127.867138 165.124431 127.285838 165.124431 Z M 127.285838 165.124431 " transform="matrix(0.288953,0,0,0.288953,0.15,0.15)"/>
<path style=" stroke:none;fill-rule:nonzero;fill:rgb(100%,100%,100%);fill-opacity:1;" d="M 36.929688 47.863281 C 36.753906 47.863281 36.582031 47.816406 36.425781 47.726562 L 25 41.058594 L 13.574219 47.726562 C 13.265625 47.90625 12.886719 47.910156 12.578125 47.730469 C 12.269531 47.550781 12.078125 47.226562 12.078125 46.867188 L 12.078125 3.132812 C 12.078125 2.585938 12.523438 2.136719 13.070312 2.136719 L 36.929688 2.136719 C 37.480469 2.136719 37.921875 2.585938 37.921875 3.132812 L 37.921875 46.867188 C 37.921875 47.226562 37.730469 47.550781 37.421875 47.730469 C 37.269531 47.820312 37.097656 47.863281 36.929688 47.863281 Z M 36.929688 47.863281 "/>
</g>
</svg>
